<svg width="14" height="15" viewBox="0 0 14 15" fill="none" xmlns="http://www.w3.org/2000/svg">
<g clip-path="url(#clip0_1_81)">
<path d="M6.125 12.75C2.7475 12.75 0 10.0025 0 6.625C0 3.2475 2.7475 0.5 6.125 0.5C9.5025 0.5 12.25 3.2475 12.25 6.625C12.25 10.0025 9.5025 12.75 6.125 12.75ZM6.125 2.25C3.71263 2.25 1.75 4.21263 1.75 6.625C1.75 9.03737 3.71263 11 6.125 11C8.53737 11 10.5 9.03737 10.5 6.625C10.5 4.21263 8.53737 2.25 6.125 2.25Z" fill="#042306"/>
<path d="M13.7436 13.0064L11.6498 10.9125C11.2901 11.3754 10.8754 11.7901 10.4125 12.1498L12.5064 14.2436C12.677 14.4143 12.901 14.5 13.125 14.5C13.349 14.5 13.573 14.4143 13.7436 14.2436C14.0858 13.9015 14.0858 13.3485 13.7436 13.0064Z" fill="#042306"/>
</g>
<defs>
<clipPath id="clip0_1_81">
<rect width="14" height="14" fill="white" transform="translate(0 0.5)"/>
</clipPath>
</defs>
</svg>
